<svg width="18" height="24" viewBox="0 0 18 24" fill="none" xmlns="http://www.w3.org/2000/svg">
<path d="M9.00312 10.4062C7.01562 10.4062 5.41249 12.0094 5.41249 13.9969C5.41249 15.9844 7.01562 17.5875 9.00312 17.5875C10.9906 17.5875 12.5937 15.9844 12.5937 13.9969C12.5937 12.0094 10.9906 10.4062 9.00312 10.4062ZM9.00312 16.3312C7.71874 16.3312 6.66874 15.2844 6.66874 13.9969C6.66874 12.7094 7.71562 11.6625 9.00312 11.6625C10.2906 11.6625 11.3375 12.7094 11.3375 13.9969C11.3375 15.2844 10.2875 16.3312 9.00312 16.3312ZM13.5781 10.2594C13.5781 10.725 13.2031 11.0969 12.7406 11.0969C12.275 11.0969 11.9031 10.7219 11.9031 10.2594C11.9031 9.79685 12.2781 9.42185 12.7406 9.42185C13.2031 9.42185 13.5781 9.79685 13.5781 10.2594ZM15.9562 11.1094C15.9031 9.98748 15.6469 8.99373 14.825 8.17498C14.0062 7.35623 13.0125 7.09998 11.8906 7.04373C10.7344 6.9781 7.26874 6.9781 6.11249 7.04373C4.99374 7.09685 3.99999 7.3531 3.17812 8.17185C2.35624 8.9906 2.10312 9.98435 2.04687 11.1062C1.98124 12.2625 1.98124 15.7281 2.04687 16.8843C2.09999 18.0062 2.35624 19 3.17812 19.8187C3.99999 20.6375 4.99062 20.8937 6.11249 20.95C7.26874 21.0156 10.7344 21.0156 11.8906 20.95C13.0125 20.8969 14.0062 20.6406 14.825 19.8187C15.6437 19 15.9 18.0062 15.9562 16.8843C16.0219 15.7281 16.0219 12.2656 15.9562 11.1094ZM14.4625 18.125C14.2187 18.7375 13.7469 19.2094 13.1312 19.4562C12.2094 19.8219 10.0219 19.7375 9.00312 19.7375C7.98437 19.7375 5.79374 19.8187 4.87499 19.4562C4.26249 19.2125 3.79062 18.7406 3.54374 18.125C3.17812 17.2031 3.26249 15.0156 3.26249 13.9969C3.26249 12.9781 3.18124 10.7875 3.54374 9.86873C3.78749 9.25623 4.25937 8.78435 4.87499 8.53748C5.79687 8.17185 7.98437 8.25623 9.00312 8.25623C10.0219 8.25623 12.2125 8.17498 13.1312 8.53748C13.7437 8.78123 14.2156 9.2531 14.4625 9.86873C14.8281 10.7906 14.7437 12.9781 14.7437 13.9969C14.7437 15.0156 14.8281 17.2062 14.4625 18.125Z" fill="#60A5FA"/>
</svg>
