<svg width="18" height="24" viewBox="0 0 18 24" fill="none" xmlns="http://www.w3.org/2000/svg">
<path d="M15.3553 10.7411C15.3655 10.8833 15.3655 11.0254 15.3655 11.1675C15.3655 15.5025 12.066 20.4975 6.03553 20.4975C4.17766 20.4975 2.45178 19.9594 1 19.0254C1.26397 19.0558 1.51775 19.066 1.79188 19.066C3.32484 19.066 4.73603 18.5483 5.86294 17.665C4.42131 17.6345 3.21319 16.6904 2.79694 15.3909C3 15.4213 3.20303 15.4416 3.41625 15.4416C3.71066 15.4416 4.00509 15.401 4.27919 15.33C2.77666 15.0254 1.64972 13.7056 1.64972 12.1117V12.0711C2.08625 12.3148 2.59391 12.467 3.13194 12.4873C2.24869 11.8985 1.67003 10.8934 1.67003 9.75634C1.67003 9.14722 1.83244 8.58884 2.11672 8.10153C3.73094 10.0914 6.15734 11.3908 8.87813 11.533C8.82738 11.2893 8.79691 11.0356 8.79691 10.7818C8.79691 8.97463 10.2588 7.50256 12.0761 7.50256C13.0202 7.50256 13.873 7.8985 14.472 8.53809C15.2131 8.39597 15.9238 8.12184 16.5533 7.74622C16.3096 8.50766 15.7918 9.14725 15.1116 9.55331C15.7715 9.48228 16.4111 9.2995 16.9999 9.04572C16.5533 9.69544 15.9949 10.2741 15.3553 10.7411Z" fill="#60A5FA"/>
</svg>
